<svg width="127" height="101" viewBox="0 0 127 101" fill="none" xmlns="http://www.w3.org/2000/svg">
<rect y="17.0494" width="58.3142" height="81.6399" rx="2.64" transform="rotate(-17 0 17.0494)" fill="white"/>
<rect y="17.0494" width="58.3142" height="81.6399" rx="2.67273" transform="rotate(-17 0 17.0494)" fill="white"/>
<path d="M70.3018 68.1987L70.1663 67.7555L71.2941 67.4107L71.4296 67.8539C71.6615 68.6124 71.7635 69.9697 71.73 71.9369L71.6727 75.9336L70.4019 76.3222L68.1195 73.0408C66.9916 71.4286 66.3172 70.2463 66.0853 69.4878L65.9498 69.0446L67.0776 68.6999L67.2131 69.143C67.3225 69.5009 67.5331 69.9491 67.8366 70.49L70.5466 69.6615C70.4846 69.0374 70.4086 68.5481 70.3018 68.1987ZM70.6032 74.723L70.611 71.7385C70.6154 71.2712 70.6075 70.8543 70.5907 70.4681L68.2342 71.1885C68.4362 71.5181 68.6654 71.8767 68.9278 72.2531L70.6032 74.723Z" fill="#222222"/>
<path d="M69.194 62.5805C69.5068 61.8185 69.3652 60.932 68.6474 60.5426C67.8716 60.1217 67.0243 60.5714 66.6477 61.2943C65.9314 60.9056 64.9774 61.0065 64.5696 61.7893C64.1923 62.5136 64.5706 63.3277 65.2561 63.7844C65.9963 64.2777 66.9072 64.6174 67.749 64.8962C68.291 64.1944 68.8561 63.4034 69.194 62.5805Z" fill="#2C2C2C"/>
<path d="M9.33347 26.9233L9.46896 27.3665L8.34119 27.7113L8.20571 27.2681C7.97381 26.5096 7.87173 25.1523 7.90528 23.1851L7.96256 19.1884L9.23341 18.7998L11.5158 22.0812C12.6437 23.6934 13.3181 24.8757 13.55 25.6342L13.6854 26.0774L12.5577 26.4222L12.4222 25.979C12.3128 25.6211 12.1021 25.1729 11.7987 24.632L9.08871 25.4605C9.15067 26.0846 9.22665 26.5739 9.33347 26.9233ZM9.03211 20.399L9.02427 23.3835C9.01989 23.8508 9.02772 24.2677 9.04458 24.654L11.4011 23.9335C11.1991 23.6039 10.9698 23.2453 10.7075 22.8689L9.03211 20.399Z" fill="#222222"/>
<path d="M10.4413 32.5415C10.1284 33.3035 10.27 34.19 10.9878 34.5794C11.7636 35.0003 12.611 34.5506 12.9875 33.8278C13.7039 34.2164 14.6579 34.1155 15.0657 33.3327C15.443 32.6085 15.0646 31.7943 14.3792 31.3376C13.6389 30.8443 12.7281 30.5046 11.8863 30.2258C11.3443 30.9276 10.7792 31.7186 10.4413 32.5415Z" fill="#2C2C2C"/>
<path d="M31.7802 48.5895C30.5768 51.5202 31.1215 54.9298 33.8822 56.4277C36.866 58.0466 40.1251 56.3167 41.5733 53.5366C44.3287 55.0315 47.9978 54.6433 49.5662 51.6326C51.0173 48.847 49.5623 45.7158 46.9258 43.959C44.0788 42.0619 40.5755 40.7551 37.3378 39.6829C35.2533 42.3823 33.0797 45.4247 31.7802 48.5895Z" fill="#2C2C2C"/>
<line x1="23.77" y1="94.7978" x2="79.5362" y2="77.7484" stroke="black" stroke-width="0.678072"/>
<line x1="0.0991024" y1="17.3737" x2="55.8652" y2="0.324234" stroke="black" stroke-width="0.678072"/>
<line x1="55.4419" y1="0.0991176" x2="79.3111" y2="78.1717" stroke="black" stroke-width="0.678072"/>
<line x1="0.324222" y1="16.9503" x2="24.1934" y2="95.0229" stroke="black" stroke-width="0.678072"/>
<rect x="70.5916" y="5.99994" width="58.3142" height="80.6906" rx="2.64166" transform="rotate(17 70.5916 5.99994)" fill="white"/>
<rect x="70.5916" y="5.99994" width="57.6361" height="80.6906" rx="2.64166" transform="rotate(17 70.5916 5.99994)" fill="white"/>
<path d="M98.3095 94.3129L99.4477 90.5899L97.1288 92.0085C96.3006 92.5106 95.8172 92.9431 95.676 93.3144L95.605 93.4861L94.4725 93.1399L94.5693 92.8839C94.7454 92.4588 95.352 91.9258 96.3973 91.2875L97.811 90.4119L96.9067 87.9893C96.4984 86.9066 96.3461 86.1048 96.4617 85.6059L96.5419 85.2528L97.6744 85.599L97.6089 85.8737C97.5037 86.3389 97.6074 86.997 97.9313 87.842L98.7537 90.0185L99.8237 89.3601L100.689 86.5299L101.821 86.8761L99.4368 94.676L98.3043 94.3298L98.3095 94.3129Z" fill="#222222"/>
<path d="M102.773 81.7491C103.45 81.2977 103.824 80.493 103.451 79.7772C103.048 79.0035 102.105 78.9037 101.397 79.2879C101.025 78.5735 100.188 78.1289 99.4209 78.545C98.7115 78.9299 98.5715 79.8061 98.8808 80.5592C99.2147 81.3725 99.7733 82.1543 100.309 82.848C101.141 82.5724 102.041 82.2366 102.773 81.7491Z" fill="#2C2C2C"/>
<path d="M75.0483 11.9012L73.91 15.6242L76.229 14.2055C77.0571 13.7035 77.5405 13.271 77.6817 12.8997L77.7527 12.728L78.8852 13.0742L78.7885 13.3302C78.6123 13.7553 78.0058 14.2882 76.9604 14.9265L75.5467 15.8022L76.4511 18.2248C76.8593 19.3075 77.0116 20.1093 76.896 20.6082L76.8158 20.9613L75.6833 20.6151L75.7488 20.3403C75.8541 19.8752 75.7503 19.2171 75.4264 18.3721L74.604 16.1956L73.534 16.854L72.6687 19.6842L71.5363 19.338L73.9209 11.5381L75.0534 11.8843L75.0483 11.9012Z" fill="#222222"/>
<path d="M70.5849 24.465C69.9074 24.9164 69.5335 25.7211 69.9064 26.4369C70.3094 27.2106 71.2523 27.3104 71.9603 26.9262C72.3325 27.6406 73.17 28.0852 73.9368 27.6691C74.6462 27.2842 74.7862 26.408 74.477 25.6549C74.143 24.8416 73.5845 24.0598 73.0488 23.3661C72.2168 23.6417 71.3165 23.9775 70.5849 24.465Z" fill="#2C2C2C"/>
<path d="M79.2004 49.4084C76.5945 51.1448 75.1564 54.2396 76.5907 56.9928C78.1408 59.9684 81.7673 60.3522 84.4906 58.8747C85.9221 61.6224 89.1431 63.3322 92.0922 61.7321C94.8209 60.2516 95.3592 56.8817 94.1698 53.985C92.8855 50.857 90.7371 47.85 88.6768 45.182C85.4768 46.2418 82.0143 47.5334 79.2004 49.4084Z" fill="#2C2C2C"/>
<line x1="47.0991" y1="82.8405" x2="102.865" y2="99.8899" stroke="black" stroke-width="0.678072"/>
<line x1="70.4925" y1="6.32419" x2="126.259" y2="23.3736" stroke="black" stroke-width="0.678072"/>
<line x1="126.034" y1="22.9502" x2="102.442" y2="100.115" stroke="black" stroke-width="0.678072"/>
<line x1="70.9158" y1="6.09906" x2="47.3242" y2="83.2638" stroke="black" stroke-width="0.678072"/>
</svg>
